<svg width="67" height="36" viewBox="0 0 67 36" fill="none" xmlns="http://www.w3.org/2000/svg">
<g opacity="0.4" clip-path="url(#clip0_19_527)">
<rect width="66.5354" height="35.0757" fill="white" style="mix-blend-mode:color-burn"/>
<path fill-rule="evenodd" clip-rule="evenodd" d="M66.536 17.5391C66.536 27.2237 51.6396 35.0747 33.2698 35.0747C14.895 35.0747 0.000610352 27.2237 0.000610352 17.5391C0.000610352 7.85461 14.895 0.00354004 33.2698 0.00354004C51.6396 0.00354004 66.536 7.85461 66.536 17.5391Z" fill="#C1C9CF"/>
<path fill-rule="evenodd" clip-rule="evenodd" d="M65.1591 17.5251C65.1591 26.4193 50.8753 33.6296 33.2573 33.6296C15.6384 33.6296 1.35498 26.4193 1.35498 17.5251C1.35498 8.63126 15.6384 1.42139 33.2573 1.42139C50.8753 1.4213 65.1591 8.63126 65.1591 17.5251ZM33.2573 2.68924C16.3293 2.68924 2.60551 9.33165 2.60551 17.525C2.60551 25.7185 16.3293 32.361 33.2573 32.361C50.1847 32.361 63.908 25.7185 63.908 17.525C63.908 9.33165 50.1847 2.68924 33.2573 2.68924Z" fill="#414B47"/>
<path fill-rule="evenodd" clip-rule="evenodd" d="M63.1147 17.525C63.1147 25.2781 49.747 31.5634 33.2574 31.5634C16.7672 31.5634 3.39957 25.2781 3.39957 17.525C3.39957 9.77245 16.7672 3.48755 33.2574 3.48755C49.7471 3.48755 63.1147 9.77237 63.1147 17.525ZM52.3927 10.9528H47.2719L46.6481 12.7453H49.9627L46.182 14.0613L45.9321 14.7882L51.7498 12.8704L52.3927 10.9528ZM19.7436 14.099H17.6576C17.6576 14.099 19.5909 8.91888 19.7459 8.52726C20.0217 7.83339 20.1864 7.88113 20.1864 7.88113H17.3053C17.6619 8.05269 17.346 8.72892 17.346 8.72892C17.346 8.72892 15.0384 15.1891 14.8776 15.5118C14.7169 15.8352 14.5965 15.8758 14.5965 15.8758H19.5859L20.2838 13.9625C20.2236 14.1447 19.7436 14.099 19.7436 14.099ZM28.4955 15.8676H30.8456C30.8456 15.8676 30.6846 15.6279 30.7851 15.3657C30.9243 15.0015 32.171 11.5904 32.171 11.5904L32.7131 15.8676H34.8419L37.6324 8.25938C37.6324 8.25938 37.7467 7.90253 37.9023 7.90253L35.6404 7.89584C35.6404 7.89584 35.7052 8.15846 35.6246 8.36046C35.5447 8.56246 34.2588 12.0145 34.2588 12.0145L33.7568 7.89593H31.3275C31.3275 7.89593 31.4532 8.09759 31.3728 8.31957C31.3072 8.49967 28.7972 15.4259 28.7972 15.4259C28.7972 15.4259 28.6366 15.8676 28.4955 15.8676ZM39.2399 7.8981C39.2399 7.8981 39.4407 8.22108 39.179 8.96771C38.9179 9.71493 36.8697 15.2663 36.8697 15.2663C36.8697 15.2663 36.7085 15.7885 36.4882 15.89L39.7014 15.8863C39.7014 15.8863 43.5966 16.031 44.8019 11.915C44.8019 11.915 46.328 7.85738 41.91 7.8981H39.2399ZM39.5808 14.0481C39.5808 14.0481 39.5911 14.0449 39.9519 14.0449C40.4987 14.0449 41.511 13.9237 42.1913 12.2585C43.3092 9.52137 41.7495 9.61393 41.7495 9.61393H41.1468L39.5808 14.0481ZM11.0055 22.3133H16.1261L16.7493 20.5205H13.4352L17.2156 19.2048L17.4661 18.4782L11.6482 20.396L11.0055 22.3133ZM19.9793 25.6201C19.8983 25.6201 19.8983 25.3595 19.8983 25.3595L20.8402 22.8471C20.8402 22.8471 22.0134 25.1615 22.094 25.3231C22.1744 25.4848 22.1338 25.6193 22.1338 25.6193H24.9406C24.673 25.6193 24.3968 25.108 24.3968 25.108L22.9995 22.5873C24.954 22.5873 25.5791 20.6398 25.5791 20.6398C26.543 17.5443 23.299 17.6249 23.299 17.6249H19.9793C20.22 17.8942 20.0323 18.4595 20.0323 18.4595C20.0323 18.4595 17.9706 24.385 17.8104 24.8429C17.6495 25.3004 17.3551 25.6201 17.3551 25.6201H19.9793ZM21.9687 19.463L21.4246 21.0708H21.9333C21.9333 21.0708 22.9244 21.1585 23.29 20.3665C23.29 20.3665 23.7177 19.4589 22.5221 19.4589C22.2604 19.4589 21.9687 19.463 21.9687 19.463ZM49.0229 25.6494C48.8221 25.6535 48.9619 25.1595 48.9619 25.1595L49.8022 22.8764C49.8022 22.8764 50.935 25.1912 51.0145 25.3532C51.0951 25.5145 51.0552 25.649 51.0552 25.649H53.9618C53.6937 25.649 53.3991 25.1376 53.3991 25.1376L52.0012 22.6162C53.9566 22.6162 54.5448 20.739 54.5448 20.739C55.5715 17.4977 52.3017 17.6547 52.3017 17.6547H49.0083C49.2498 17.9239 49.0623 18.4892 49.0623 18.4892C49.0623 18.4892 46.9146 24.4374 46.7534 24.8945C46.5929 25.3531 46.2846 25.6449 46.2846 25.6449L49.0229 25.6494ZM50.9368 21.0998C50.9368 21.0998 51.9202 21.1746 52.2211 20.4C52.5764 19.4876 51.6899 19.5117 51.6899 19.5117H50.963L50.4276 21.0998H50.9368ZM29.0503 25.8178C31.9477 25.8178 33.672 22.9608 33.672 20.911C33.672 18.7609 32.7928 17.4192 30.7851 17.4192C28.2236 17.4192 26.5526 19.373 26.1214 21.8022C25.7251 24.0361 26.98 25.8178 29.0503 25.8178ZM29.2328 23.9286C29.9555 24.0627 30.7501 23.5399 31.165 21.8692C31.7943 19.3411 30.6345 19.3203 30.4228 19.2943C29.7816 19.2155 28.9255 19.958 28.5777 21.506C28.4184 22.213 28.2495 23.7454 29.2328 23.9286ZM34.3597 17.6547C34.3597 17.6547 34.559 17.7622 34.559 18.2732V25.1911C34.559 25.1911 34.5317 25.5698 34.3893 25.649H36.5422C36.5422 25.649 36.5422 25.487 36.7558 25.2179C36.9702 24.9488 41.4416 18.92 41.4416 18.92C41.4416 18.92 42.4612 17.6547 42.7285 17.6547H39.6474C39.6474 17.6547 39.8888 17.8164 39.7014 18.1124C39.5139 18.4086 36.775 22.5267 36.775 22.5267L36.8094 18.3729C36.8094 18.3729 36.8046 17.7069 37.0705 17.6509L34.3597 17.6547ZM47.3754 19.5408L48.0715 17.6529L42.8509 17.6535C42.8509 17.6535 43.0379 17.8195 42.7977 18.4922C42.5562 19.1658 40.4411 24.8975 40.4411 24.8975C40.4411 24.8975 40.0662 25.6509 39.9598 25.6509H45.3409L45.9837 23.7401C45.9837 23.7401 45.9035 23.8476 45.3948 23.8476H43.1185L43.601 22.5556H45.3674C45.3674 22.5556 45.7428 22.5289 45.8229 22.6366L46.5457 20.5943C46.5457 20.5943 46.4929 20.7791 46.0101 20.7791H44.2965L44.8059 19.353H46.9743C46.9743 19.3531 47.2689 19.3122 47.3754 19.5408ZM20.158 15.8747H22.7336C22.7336 15.8747 22.7256 15.6759 22.7927 15.5468C22.9151 15.3135 23.2347 14.7507 23.2347 14.7507H25.8269L25.8319 15.4528C25.8319 15.4528 25.8452 15.6947 25.6544 15.8814H28.225C28.225 15.8814 28.034 15.7737 27.9989 15.4559L27.6764 8.43086C27.6764 8.43086 27.6625 7.98188 27.8751 7.88731H25.3251C25.3251 7.88731 25.5036 8.10921 25.1622 8.61388C24.8211 9.11863 20.4648 15.612 20.4648 15.612C20.4648 15.612 20.3782 15.7789 20.158 15.8747ZM25.7775 10.6062L24.3461 12.9473H25.798L25.7775 10.6062Z" fill="#414B47"/>
</g>
<defs>
<clipPath id="clip0_19_527">
<rect width="66.5354" height="35.0757" fill="white"/>
</clipPath>
</defs>
</svg>
