<svg width="33" height="32" viewBox="0 0 33 32" fill="none" xmlns="http://www.w3.org/2000/svg">
<g opacity="0.4" clip-path="url(#clip0_19_537)">
<rect width="32.5636" height="31.4143" fill="white" style="mix-blend-mode:color-burn"/>
<path d="M0 3.64925C0 2.59151 0.366717 1.71889 1.10012 1.0314C1.83352 0.34387 2.78698 0.00012207 3.96043 0.00012207C5.11295 0.00012207 6.04541 0.33857 6.75788 1.01553C7.49128 1.71362 7.858 2.62324 7.858 3.74444C7.858 4.75985 7.50178 5.606 6.78931 6.28296C6.05591 6.98105 5.09198 7.3301 3.89757 7.3301H3.86614C2.71362 7.3301 1.78116 6.98105 1.06869 6.28296C0.356219 5.58487 0 4.70695 0 3.64925ZM0.408616 31.4143V10.2177H7.38652V31.4143H0.408616ZM11.2527 31.4143H18.2306V19.5785C18.2306 18.838 18.3144 18.2669 18.482 17.865C18.7754 17.1457 19.2207 16.5375 19.8179 16.0404C20.4151 15.5433 21.1642 15.2947 22.0653 15.2947C24.4122 15.2947 25.5856 16.8919 25.5856 20.0862V31.4143H32.5636V19.2611C32.5636 16.1303 31.8301 13.7557 30.3633 12.1374C28.8965 10.5191 26.9582 9.70996 24.5484 9.70996C21.8452 9.70996 19.7393 10.884 18.2306 13.2322V13.2956H18.1991L18.2306 13.2322V10.2177H11.2527C11.2946 10.8946 11.3155 12.9994 11.3155 16.5322C11.3155 20.065 11.2946 25.0257 11.2527 31.4143Z" fill="black"/>
</g>
<defs>
<clipPath id="clip0_19_537">
<rect width="32.5636" height="31.4143" fill="white"/>
</clipPath>
</defs>
</svg>
